<svg width="24" height="24" viewBox="0 0 24 24" fill="none" xmlns="http://www.w3.org/2000/svg">
<path opacity="0.2" d="M11.9802 19.4261C16.0727 19.4261 19.3904 16.1085 19.3904 12.0159C19.3904 7.92333 16.0727 4.60565 11.9802 4.60565C7.8876 4.60565 4.56992 7.92333 4.56992 12.0159C4.56992 16.1085 7.8876 19.4261 11.9802 19.4261Z" fill="#1E6F9F"/>
<path d="M11.9643 4.85955C13.3765 4.85955 14.7571 5.27834 15.9313 6.06294C17.1056 6.84755 18.0208 7.96275 18.5612 9.2675C19.1017 10.5723 19.2431 12.008 18.9676 13.3931C18.6921 14.7782 18.012 16.0505 17.0134 17.0491C16.0148 18.0478 14.7425 18.7278 13.3573 19.0033C11.9722 19.2789 10.5365 19.1375 9.23174 18.597C7.92699 18.0566 6.8118 17.1413 6.02719 15.9671C5.24258 14.7928 4.8238 13.4123 4.8238 12C4.83111 10.1085 5.58576 8.29656 6.92328 6.95904C8.2608 5.62152 10.0728 4.86687 11.9643 4.85955ZM11.9643 3.27278C10.2397 3.27983 8.55593 3.79767 7.12545 4.76091C5.69496 5.72416 4.58192 7.08962 3.92685 8.68493C3.27177 10.2802 3.10403 12.0339 3.44479 13.7244C3.78556 15.415 4.61955 16.9667 5.84149 18.1837C7.06343 19.4006 8.61853 20.2283 10.3105 20.5621C12.0024 20.896 13.7554 20.7211 15.348 20.0595C16.9406 19.3979 18.3015 18.2793 19.2589 16.8449C20.2163 15.4105 20.7273 13.7246 20.7273 12C20.7273 10.851 20.5004 9.71318 20.0595 8.652C19.6187 7.59083 18.9727 6.62715 18.1585 5.81628C17.3443 5.00541 16.378 4.36331 15.315 3.92683C14.2521 3.49035 13.1134 3.26808 11.9643 3.27278Z" fill="#1E6F9F"/>
</svg>
